<svg id="Calque_1" data-name="Calque 1" xmlns="http://www.w3.org/2000/svg" viewBox="0 0 44.05 70.44"><defs><style>.cls-1{fill:#ed6b5e;}</style></defs><title>webapp</title><path class="cls-1" d="M399.36,297.81c0-10.08,0-20.16,0-30.24a4.87,4.87,0,0,1,5-5c11.38.05,22.77,0,34.15,0a4.61,4.61,0,0,1,4.9,4.89q0,30.31,0,60.62a4.62,4.62,0,0,1-4.9,4.89c-11.41,0-22.81,0-34.22,0a4.85,4.85,0,0,1-4.93-4.91C399.4,318,399.36,307.91,399.36,297.81Zm3.13-.06q0,15.09,0,30.18c0,1.47.48,2,1.94,2h33.89c1.43,0,1.93-.49,1.93-1.9q0-30.18,0-60.36c0-1.37-.51-1.89-1.87-1.89h-34c-1.36,0-1.87.52-1.87,1.9Q402.49,282.69,402.49,297.74Z" transform="translate(-399.33 -262.58)"/><path class="cls-1" d="M407.39,293.85A14.08,14.08,0,1,1,421.29,308,14.07,14.07,0,0,1,407.39,293.85Zm2.42-1.17h3.83c.07-.72.12-1.39.2-2.06s.22-1.36.33-2l-2.44-1.17A10.49,10.49,0,0,0,409.81,292.67Zm23.31,0a11.57,11.57,0,0,0-1.91-5.28l-2.45,1.18.53,4.09Zm-4.35,6.51,2.46,1.17a11.56,11.56,0,0,0,1.88-5.26H429.3Zm-19-4.1a11.28,11.28,0,0,0,1.92,5.27l2.44-1.19-.55-4.08Zm12.78-2.43h4.37l-.43-3.27-3.94.62Zm0,5.1,3.95.62.41-3.28h-4.36Zm-2.39-5.08V290l-3.77-.62-.43,3.31Zm-3.77,5.71,3.75-.62v-2.67H416Zm6.18,1.73v5.21a9,9,0,0,0,3.26-4.68Zm0-12.48,3.27-.54c-.76-1.87-1.54-3.55-3.27-4.66Zm-2.42,17.57v-5.07l-3.08.52A9.14,9.14,0,0,0,420.15,305.22Zm0-22.69a9.4,9.4,0,0,0-3.09,4.59l3.09.5Zm-4.07,1-.1-.12-2.87,2.07,1.69.78Zm13.7,1.94-2.89-2-.09.13,1.28,2.73Zm-1.7,16-1.28,2.75.1.12,2.86-2.05Zm-15,.81,2.89,2,.08-.14-1.28-2.72Z" transform="translate(-399.33 -262.58)"/><path class="cls-1" d="M421.38,327.31a4.3,4.3,0,1,1,4.29-4.32A4.29,4.29,0,0,1,421.38,327.31Zm0-2.35a1.94,1.94,0,0,0,2-1.9,2,2,0,1,0-3.91,0A1.94,1.94,0,0,0,421.35,325Z" transform="translate(-399.33 -262.58)"/><path class="cls-1" d="M421.33,271.21H418.4a1.18,1.18,0,1,1,0-2.34h6a1.18,1.18,0,0,1,1.3,1.16,1.2,1.2,0,0,1-1.34,1.19Z" transform="translate(-399.33 -262.58)"/><path class="cls-1" d="M421.35,325a1.94,1.94,0,0,1-1.93-1.95,2,2,0,1,1,3.91,0A1.94,1.94,0,0,1,421.35,325Z" transform="translate(-399.33 -262.58)"/></svg>