<svg id="Calque_1" data-name="Calque 1" xmlns="http://www.w3.org/2000/svg" viewBox="0 0 84.11 67.71"><defs><style>.cls-1{fill:#ed6b5e;}</style></defs><title>blog</title><path class="cls-1" d="M420.44,332H384c-3.55,0-5.6-2.05-5.6-5.63q0-28.21,0-56.42c0-3.6,2.06-5.65,5.67-5.65h72.81c3.57,0,5.62,2,5.62,5.61q0,28.25,0,56.5c0,3.57-2,5.6-5.62,5.6ZM409.6,291.55v36.16h48.66V291.55Zm-26.93-14.63v50.78h23.89V276.92Zm75.61,0H409.58V288.5h48.69ZM395.42,271a2.52,2.52,0,0,0-2.51-2.55,2.53,2.53,0,0,0,0,5.05A2.5,2.5,0,0,0,395.42,271Zm-11.95,0a2.51,2.51,0,0,0,2.5,2.55,2.53,2.53,0,0,0,0-5.05A2.52,2.52,0,0,0,383.48,271Zm13.87-.09a2.51,2.51,0,0,0,2.41,2.63,2.53,2.53,0,1,0-2.41-2.63Z" transform="translate(-378.4 -264.26)"/></svg>