<svg id="Calque_1" data-name="Calque 1" xmlns="http://www.w3.org/2000/svg" viewBox="0 0 64.08 64.1"><defs><style>.cls-1{fill:#ed6b5e;}</style></defs><title>design</title><path class="cls-1" d="M396.55,328.59h55c.68,0,1.5-.19,1.63.84.08.65-.45.93-1.66.93H390.28c-1.06,0-1.37-.42-1.06-1.43q2.06-6.86,4.13-13.73c1-3.32,2-6.64,3-10a3,3,0,0,1,.69-1.17q18.21-18.26,36.45-36.5c1.5-1.51,3.26-1.52,5.12-1a17.68,17.68,0,0,1,7,3.9,23.77,23.77,0,0,1,6.64,8.47,7.3,7.3,0,0,1,.8,4.83,4.6,4.6,0,0,1-1.08,2q-18.29,18.37-36.66,36.66a2.75,2.75,0,0,1-1.11.63q-8.57,2.62-17.15,5.2l-.48.16Zm17-14.15h-7.32c-1,0-1.23-.24-1.23-1.25,0-1.78,0-3.56,0-5.34,0-.63,0-1.26,0-1.95-2.29,0-4.45,0-6.6,0-.2,0-.5.35-.58.59q-1.68,5.42-3.29,10.87a1.17,1.17,0,0,0,.24,1q3.13,3.19,6.33,6.3a1.1,1.1,0,0,0,.9.25q5.53-1.62,11-3.33c.2-.06.48-.32.48-.48C413.56,318.91,413.55,316.73,413.55,314.44Zm35.49-28a3.32,3.32,0,0,1,.62-.85c2.09-1.53,2.08-3.48,1.13-5.6a20.55,20.55,0,0,0-1.36-2.64,22.57,22.57,0,0,0-7.67-7.54,18.32,18.32,0,0,0-4.35-1.73,3.14,3.14,0,0,0-2.23.38,13.19,13.19,0,0,0-2.13,2ZM428.1,275.6l15.67,15.67,3.53-3.53-15.67-15.67Z" transform="translate(-389.11 -266.25)"/></svg>