<svg id="Calque_1" data-name="Calque 1" xmlns="http://www.w3.org/2000/svg" viewBox="0 0 80.51 65.87"><defs><style>.cls-1{fill:#ed6b5e;}</style></defs><title>internet</title><path class="cls-1" d="M420.44,265h38c1.77,0,2.38.6,2.38,2.38q0,24.2,0,48.4c0,1.72-.61,2.33-2.34,2.33H382.6c-1.73,0-2.33-.6-2.33-2.33q0-24.24,0-48.47c0-1.67.62-2.3,2.29-2.3Zm36.65,3.72H384v39.44h73.12Z" transform="translate(-380.27 -265)"/><path class="cls-1" d="M420.5,330.87H407.16c-1.62,0-2.33-.76-2.19-2.38a4.84,4.84,0,0,1,2.33-3.75c.76-.5,1.58-.92,2.37-1.38a2,2,0,0,0,1.1-1.85,1.75,1.75,0,0,1,1.87-1.78h15.78a1.74,1.74,0,0,1,1.87,1.86,1.78,1.78,0,0,0,.92,1.64c.74.45,1.5.85,2.24,1.3a5,5,0,0,1,2.66,4.18,1.83,1.83,0,0,1-2,2.16Z" transform="translate(-380.27 -265)"/></svg>